<svg height="464pt" viewBox="-40 0 464 464" width="464pt" xmlns="http://www.w3.org/2000/svg">
<path style="fill:#11C0DC;" d="m184 320h16v16h-16zm0 0"/><path style="fill:#11C0DC;" d="m184 192h16v16h-16zm0 0"/>
<path style="fill:#11C0DC;" d="m120 256h16v16h-16zm0 0"/><path style="fill:#11C0DC;" d="m248 128h16v16h-16zm0 0"/>
<path style="fill:#11C0DC;" d="m184 256h16v16h-16zm0 0"/><path style="fill:#11C0DC;" d="m248 192h16v16h-16zm0 0"/>
<path style="fill:#11C0DC;" d="m120 128h16v16h-16zm0 0"/><path style="fill:#11C0DC;" d="m120 64h16v16h-16zm0 0"/>
<path style="fill:#11C0DC;" d="m248 256h16v16h-16zm0 0"/><path style="fill:#11C0DC;" d="m120 192h16v16h-16zm0 0"/>
<path style="fill:#11C0DC;" d="m120 320h16v16h-16zm0 0"/><path style="fill:#11C0DC;" d="m184 128h16v16h-16zm0 0"/>
<path style="fill:#11C0DC;" d="m72 0h240v16h-240zm0 0"/><path style="fill:#11C0DC;" d="m184 64h16v16h-16zm0 0"/>
<path style="fill:#11C0DC;" d="m248 64h16v16h-16zm0 0"/><path style="fill:#11C0DC;" d="m248 320h16v16h-16zm0 0"/>
<path style="fill:#11C0DC;" d="m296 448v-416h-208v416h-88v16h384v-16zm-64-392c0-4.417969 3.582031-8 8-8h32c4.417969 0 8 3.582031 8 8v32c0 4.417969-3.582031 8-8 8h-32c-4.417969 0-8-3.582031-8-8zm0 64c0-4.417969 3.582031-8 8-8h32c4.417969 0 8 3.582031 8 8v32c0 4.417969-3.582031 8-8 8h-32c-4.417969 0-8-3.582031-8-8zm0 64c0-4.417969 3.582031-8 8-8h32c4.417969 0 8 3.582031 8 8v32c0 4.417969-3.582031 8-8 8h-32c-4.417969 0-8-3.582031-8-8zm0 64c0-4.417969 3.582031-8 8-8h32c4.417969 0 8 3.582031 8 8v32c0 4.417969-3.582031 8-8 8h-32c-4.417969 0-8-3.582031-8-8zm0 64c0-4.417969 3.582031-8 8-8h32c4.417969 0 8 3.582031 8 8v32c0 4.417969-3.582031 8-8 8h-32c-4.417969 0-8-3.582031-8-8zm-64-256c0-4.417969 3.582031-8 8-8h32c4.417969 0 8 3.582031 8 8v32c0 4.417969-3.582031 8-8 8h-32c-4.417969 0-8-3.582031-8-8zm0 64c0-4.417969 3.582031-8 8-8h32c4.417969 0 8 3.582031 8 8v32c0 4.417969-3.582031 8-8 8h-32c-4.417969 0-8-3.582031-8-8zm0 64c0-4.417969 3.582031-8 8-8h32c4.417969 0 8 3.582031 8 8v32c0 4.417969-3.582031 8-8 8h-32c-4.417969 0-8-3.582031-8-8zm0 64c0-4.417969 3.582031-8 8-8h32c4.417969 0 8 3.582031 8 8v32c0 4.417969-3.582031 8-8 8h-32c-4.417969 0-8-3.582031-8-8zm0 64c0-4.417969 3.582031-8 8-8h32c4.417969 0 8 3.582031 8 8v32c0 4.417969-3.582031 8-8 8h-32c-4.417969 0-8-3.582031-8-8zm-64-256c0-4.417969 3.582031-8 8-8h32c4.417969 0 8 3.582031 8 8v32c0 4.417969-3.582031 8-8 8h-32c-4.417969 0-8-3.582031-8-8zm0 64c0-4.417969 3.582031-8 8-8h32c4.417969 0 8 3.582031 8 8v32c0 4.417969-3.582031 8-8 8h-32c-4.417969 0-8-3.582031-8-8zm0 64c0-4.417969 3.582031-8 8-8h32c4.417969 0 8 3.582031 8 8v32c0 4.417969-3.582031 8-8 8h-32c-4.417969 0-8-3.582031-8-8zm0 64c0-4.417969 3.582031-8 8-8h32c4.417969 0 8 3.582031 8 8v32c0 4.417969-3.582031 8-8 8h-32c-4.417969 0-8-3.582031-8-8zm0 64c0-4.417969 3.582031-8 8-8h32c4.417969 0 8 3.582031 8 8v32c0 4.417969-3.582031 8-8 8h-32c-4.417969 0-8-3.582031-8-8zm128 136v-64h-32v64h-16v-64h-32v64h-16v-72c0-4.417969 3.582031-8 8-8h96c4.417969 0 8 3.582031 8 8v72zm0 0"/></svg>